# xmcd
#
# Track frame offsets:
#	150
#	32919
#	50138
#	70757
#	97610
#	129681
#	156423
#	185366
#	200301
#	236134
#
# Disc length: 3479 seconds
#
# Revision: 1
# Processed by: cddbd v1.5.2PL0 Copyright (c) Steve Scherf et al.
# Submitted via: audiograbber 1.83.01
#
DISCID=890d950a
DTITLE=Derrin Nauendorf - Live
DYEAR=2011
DGENRE=Folk Blues
TTITLE0=Skin Of The Earth
TTITLE1=Everyone's Got A Plan
TTITLE2=I Won't Turn My Back
TTITLE3=Gotta Serve Somebody
TTITLE4=All The Faces
TTITLE5=Crossroads
TTITLE6=Ghost Town
TTITLE7=Pride Before A Fall
TTITLE8=Long Road Home
TTITLE9=Danielle
EXTD=
EXTT0=
EXTT1=
EXTT2=
EXTT3=
EXTT4=
EXTT5=
EXTT6=
EXTT7=
EXTT8=
EXTT9=
PLAYORDER=
